<svg xmlns="http://www.w3.org/2000/svg" width="29.001" height="29" viewBox="0 0 29.001 29">
  <path id="Subtraction_1" data-name="Subtraction 1" d="M20,29H9a9.01,9.01,0,0,1-9-9V9A9.01,9.01,0,0,1,9,0H20a9.01,9.01,0,0,1,9,9V20A9.01,9.01,0,0,1,20,29ZM8.306,23.992h0L8.315,24a6.85,6.85,0,0,0,3.622,1.114h.076l.086,0a6.494,6.494,0,0,0,2.658-.6A6.728,6.728,0,0,0,18.2,20.815a7.525,7.525,0,0,0,.437-2.308V11.078c.044.026.623.409.629.413a8.475,8.475,0,0,0,2.158.892,12.449,12.449,0,0,0,2.216.3v-3.6a1.738,1.738,0,0,1-.185.009,5.051,5.051,0,0,1-2.092-.563c-.141-.073-.28-.154-.415-.242a5.9,5.9,0,0,1-1.066-.905,5.061,5.061,0,0,1-1.2-2.479,3.224,3.224,0,0,1-.043-.884H15.015v14c0,.184,0,.374-.008.558,0,.02,0,.04,0,.061v.007a.19.19,0,0,1,0,.031V18.7a3.068,3.068,0,0,1-1.548,2.441,3.031,3.031,0,0,1-1.5.4,3.075,3.075,0,0,1,0-6.151h.008a3.011,3.011,0,0,1,.933.149l0-3.687a6.724,6.724,0,0,0-5.184,1.517,7.116,7.116,0,0,0-1.551,1.912,6.68,6.68,0,0,0-.8,3.042,7.2,7.2,0,0,0,.389,2.4v.009a7.088,7.088,0,0,0,.983,1.794A7.387,7.387,0,0,0,8.306,24v-.009Z" fill="#4a4174" opacity="0.8"/>
</svg>
