<svg xmlns="http://www.w3.org/2000/svg" xmlns:xlink="http://www.w3.org/1999/xlink" width="1088" height="397" viewBox="0 0 1088 397">
  <defs>
    <linearGradient id="linear-gradient" x1="0.014" y1="0.981" x2="0.456" y2="0.421" gradientUnits="objectBoundingBox">
      <stop offset="0" stop-color="#f9f9f9"/>
      <stop offset="1" stop-color="#f9f9f9"/>
    </linearGradient>
  </defs>
  <g id="Group_264" data-name="Group 264" transform="translate(-486 -315)">
    <rect id="Rectangle_444" data-name="Rectangle 444" width="1088" height="397" rx="48" transform="translate(486 315)" opacity="0.31" fill="url(#linear-gradient)"/>
    <text id="influencer_campaign_process" data-name="influencer campaign process" transform="translate(1517 696)" fill="#4a4174" font-size="14" font-family="Novera-ClassicExtraLight, Novera Classic" font-weight="200"><tspan x="-249.816" y="0">INFLUENCER CAMPAIGN PROCESS</tspan></text>
    <rect id="Rectangle_313" data-name="Rectangle 313" width="225" height="63" rx="10" transform="translate(554 481)" fill="#5fb7ff"/>
    <text id="Influencer_search" data-name="Influencer search" transform="translate(667 466)" fill="#4a4174" font-size="20" font-family="Novera-ModernBold, Novera Modern" font-weight="700"><tspan x="-84.57" y="0">Influencer search</tspan></text>
    <text id="_10_DAYS" data-name="10 DAYS" transform="translate(667 520)" fill="#f9f9f9" font-size="20" font-family="Novera-ClassicExtraLight, Novera Classic" font-weight="200"><tspan x="-40.7" y="0">10 DAYS</tspan></text>
    <text id="Client_signing" data-name="Client 
signing" transform="translate(582 357)" fill="#4a4174" font-size="25" font-family="Novera-ClassicRegular, Novera Classic"><tspan x="0" y="0">Client </tspan><tspan x="0" y="28">signing</tspan></text>
    <g id="Group_224" data-name="Group 224" transform="translate(1247 1019) rotate(180)">
      <line id="Line_66" data-name="Line 66" y2="113" transform="translate(692 553)" fill="none" stroke="#5fb7ff" stroke-width="1"/>
      <path id="Path_62" data-name="Path 62" d="M12.5,0A12.5,12.5,0,1,1,0,12.5,12.5,12.5,0,0,1,12.5,0Z" transform="translate(679 657)" fill="#5fb7ff"/>
    </g>
    <rect id="Rectangle_314" data-name="Rectangle 314" width="226" height="63" rx="10" transform="translate(796 481)" fill="#69a3f8"/>
    <text id="Content_creation_" data-name="Content creation
" transform="translate(909 466)" fill="#4a4174" font-size="20" font-family="Novera-ModernBold, Novera Modern" font-weight="700"><tspan x="-83.59" y="0">Content creation</tspan><tspan x="0" y="24"></tspan></text>
    <text id="VARIABLE" transform="translate(909 520)" fill="#f9f9f9" font-size="20" font-family="Novera-ClassicExtraLight, Novera Classic" font-weight="200"><tspan x="-51.22" y="0">VARIABLE</tspan></text>
    <text id="Influencer_approval" data-name="Influencer 
approval" transform="translate(812 617)" fill="#4a4174" font-size="25" font-family="Novera-ClassicRegular, Novera Classic"><tspan x="0" y="0">Influencer </tspan><tspan x="0" y="25">approval</tspan></text>
    <g id="Group_222" data-name="Group 222" transform="translate(104 -34)">
      <line id="Line_66-2" data-name="Line 66" y2="74" transform="translate(692 592)" fill="none" stroke="#69a3f8" stroke-width="1"/>
      <circle id="Ellipse_218" data-name="Ellipse 218" cx="8" cy="8" r="8" transform="translate(684 662)" fill="#69a3f8"/>
    </g>
    <rect id="Rectangle_315" data-name="Rectangle 315" width="227" height="63" rx="10" transform="translate(1036 481)" fill="#7191f2"/>
    <text id="Content_posting" data-name="Content posting" transform="translate(1150 466)" fill="#4a4174" font-size="20" font-family="Novera-ModernBold, Novera Modern" font-weight="700"><tspan x="-80.26" y="0">Content posting</tspan></text>
    <text id="VARIABLE-2" data-name="VARIABLE" transform="translate(1150 520)" fill="#f9f9f9" font-size="20" font-family="Novera-ClassicExtraLight, Novera Classic" font-weight="200"><tspan x="-51.22" y="0">VARIABLE</tspan></text>
    <text id="Content_approval" data-name="Content
approval" transform="translate(1055 617)" fill="#4a4174" font-size="25" font-family="Novera-ClassicRegular, Novera Classic"><tspan x="0" y="0">Content</tspan><tspan x="0" y="25">approval</tspan></text>
    <g id="Group_223" data-name="Group 223" transform="translate(345 -34)">
      <line id="Line_66-3" data-name="Line 66" y2="74" transform="translate(692 592)" fill="none" stroke="#7191f2" stroke-width="1"/>
      <circle id="Ellipse_218-2" data-name="Ellipse 218" cx="8" cy="8" r="8" transform="translate(684 662)" fill="#7191f2"/>
    </g>
    <rect id="Rectangle_316" data-name="Rectangle 316" width="225" height="63" rx="10" transform="translate(1279 481)" fill="#816fe6"/>
    <text id="_7_DAYS" data-name="7 DAYS" transform="translate(1392 520)" fill="#f9f9f9" font-size="20" font-family="Novera-ClassicExtraLight, Novera Classic" font-weight="200"><tspan x="-35.43" y="0">7 DAYS</tspan></text>
    <text id="Post_campaign_meeting" data-name="Post campaign meeting" transform="translate(1237 333)" fill="#4a4174" font-size="25" font-family="Novera-ClassicRegular, Novera Classic"><tspan x="56.125" y="24">Post campaign </tspan><tspan x="139.35" y="54">meeting</tspan></text>
    <text id="Gather_reports" data-name="Gather reports" transform="translate(1392 466)" fill="#4a4174" font-size="20" font-family="Novera-ModernBold, Novera Modern" font-weight="700"><tspan x="-73.83" y="0">Gather reports</tspan></text>
    <g id="Group_225" data-name="Group 225" transform="translate(2196 1019) rotate(180)">
      <line id="Line_66-4" data-name="Line 66" y2="113" transform="translate(692 553)" fill="none" stroke="#816fe6" stroke-width="1"/>
      <circle id="Ellipse_218-3" data-name="Ellipse 218" cx="12.5" cy="12.5" r="12.5" transform="translate(679 657)" fill="#816fe6"/>
    </g>
  </g>
</svg>
