<svg xmlns="http://www.w3.org/2000/svg" width="36.642" height="36.643" viewBox="0 0 36.642 36.643">
  <path id="iconmonstr-linkedin-3" d="M29.009,0H7.634A7.635,7.635,0,0,0,0,7.634V29.009a7.635,7.635,0,0,0,7.634,7.634H29.009a7.634,7.634,0,0,0,7.634-7.634V7.634A7.634,7.634,0,0,0,29.009,0ZM12.214,29.009H7.634V12.214h4.58ZM9.924,10.278A2.693,2.693,0,1,1,12.6,7.585,2.683,2.683,0,0,1,9.924,10.278ZM30.535,29.009h-4.58V20.453c0-5.142-6.107-4.753-6.107,0v8.556h-4.58V12.214h4.58v2.695c2.131-3.948,10.687-4.24,10.687,3.78Z" fill="#c3bbe9"/>
</svg>
