<svg xmlns="http://www.w3.org/2000/svg" width="320.41" height="47" viewBox="0 0 320.41 47">
  <g id="Group_261" data-name="Group 261" transform="translate(-799 -517)">
    <path id="Path_5" data-name="Path 5" d="M1224.382,145.709a23.5,23.5,0,1,0,3.82,46.689V172.784a.81.81,0,0,0-.809-.81h-6.9a.81.81,0,0,1-.81-.807v-5.1a.806.806,0,0,1,.792-.808c7.085-.068,8.586-4.186,8.9-5.807a.8.8,0,0,1,.8-.642l6.31.024a.809.809,0,0,1,.806.811c0,4.219-.027,23.772-.027,29.221a23.5,23.5,0,0,0-12.88-43.157Z" transform="translate(-401.882 371.291)" fill="#f9f9f9"/>
    <path id="Path_63" data-name="Path 63" d="M15.48,0V-10.23c0-2.82-1.53-4.62-4.71-4.62A6.635,6.635,0,0,0,5.7-12.6v-1.89H1.89V0H5.7V-9.75A4.127,4.127,0,0,1,9-11.46c1.62,0,2.67.69,2.67,2.7V0Zm11.4-11.16v-3.33H23.94v-.78c0-1.32.72-2.04,1.8-2.04a2.136,2.136,0,0,1,1.23.36l.78-2.76a6.161,6.161,0,0,0-2.76-.6,4.67,4.67,0,0,0-4.89,5.04v.78H17.7v3.33h2.4V0h3.84V-11.16ZM32.88,0V-20.01H29.07V0ZM50.25,0V-14.49H46.44v9.81a4.265,4.265,0,0,1-3.3,1.65c-1.62,0-2.67-.66-2.67-2.67v-8.79H36.66V-4.2c0,2.82,1.5,4.56,4.68,4.56a6.782,6.782,0,0,0,5.1-2.19V0ZM53.1-7.26c0,4.65,3.33,7.62,7.74,7.62a8.93,8.93,0,0,0,5.97-2.01L65.13-4.11a5.926,5.926,0,0,1-3.87,1.44,3.9,3.9,0,0,1-4.17-3.36H67.86v-.84c0-4.74-2.94-7.98-7.26-7.98A7.374,7.374,0,0,0,53.1-7.26Zm7.5-4.56a3.356,3.356,0,0,1,3.57,3.21H57.03A3.482,3.482,0,0,1,60.6-11.82ZM84.21,0V-10.23c0-2.82-1.53-4.62-4.71-4.62a6.635,6.635,0,0,0-5.07,2.25v-1.89H70.62V0h3.81V-9.75a4.127,4.127,0,0,1,3.3-1.71c1.62,0,2.67.69,2.67,2.7V0Zm2.85-7.26A7.357,7.357,0,0,0,94.74.36a6.678,6.678,0,0,0,5.73-2.64L97.98-4.59a3.657,3.657,0,0,1-3.06,1.56,3.9,3.9,0,0,1-3.93-4.23,3.872,3.872,0,0,1,3.93-4.2A3.584,3.584,0,0,1,97.98-9.9l2.49-2.31a6.678,6.678,0,0,0-5.73-2.64A7.35,7.35,0,0,0,87.06-7.26Zm14.97,0c0,4.65,3.33,7.62,7.74,7.62a8.93,8.93,0,0,0,5.97-2.01l-1.68-2.46a5.926,5.926,0,0,1-3.87,1.44,3.9,3.9,0,0,1-4.17-3.36h10.77v-.84c0-4.74-2.94-7.98-7.26-7.98A7.374,7.374,0,0,0,102.03-7.26Zm7.5-4.56a3.356,3.356,0,0,1,3.57,3.21h-7.14A3.482,3.482,0,0,1,109.53-11.82ZM123.36,0V-9.57a4.829,4.829,0,0,1,3.57-1.62,5.06,5.06,0,0,1,1.05.09v-3.72a6.2,6.2,0,0,0-4.62,2.31v-1.98h-3.81V0Zm5.73-1.89A9.754,9.754,0,0,0,135.57.36c4.02,0,6.27-1.98,6.27-4.65,0-3.6-3.33-4.26-5.82-4.74-1.62-.33-2.76-.66-2.76-1.56,0-.84.9-1.35,2.28-1.35a6.113,6.113,0,0,1,4.29,1.68l1.5-2.61a9.1,9.1,0,0,0-5.82-1.98c-3.81,0-5.94,2.13-5.94,4.56,0,3.45,3.21,4.05,5.7,4.53,1.65.33,2.91.69,2.91,1.71,0,.9-.78,1.47-2.43,1.47a8.294,8.294,0,0,1-5.01-1.98ZM162.51,0h2.25V-10.47c0-2.91-1.41-4.38-4.05-4.38a6.1,6.1,0,0,0-4.86,2.7,3.72,3.72,0,0,0-3.9-2.7,6.264,6.264,0,0,0-4.68,2.46v-2.1h-2.25V0h2.25V-10.59a5.059,5.059,0,0,1,3.81-2.25c1.89,0,2.67,1.17,2.67,3V0H156V-10.62a5.069,5.069,0,0,1,3.84-2.22c1.86,0,2.67,1.17,2.67,3Zm15.81,0h2.25V-9.96c0-3.51-2.55-4.89-5.61-4.89a7.585,7.585,0,0,0-5.79,2.4l1.05,1.56a5.756,5.756,0,0,1,4.44-2.01c2.1,0,3.66,1.11,3.66,3.06v2.61a6.058,6.058,0,0,0-4.8-1.98c-2.46,0-5.07,1.53-5.07,4.77a4.825,4.825,0,0,0,5.07,4.8,6.268,6.268,0,0,0,4.8-2.01Zm0-3.06a4.852,4.852,0,0,1-3.99,1.8c-2.1,0-3.57-1.32-3.57-3.15,0-1.86,1.47-3.18,3.57-3.18a4.852,4.852,0,0,1,3.99,1.8ZM185.07,0h2.25V-10.26a5.3,5.3,0,0,1,3.93-2.31,3.966,3.966,0,0,1,.9.09v-2.31a6.159,6.159,0,0,0-4.83,2.64v-2.34h-2.25Zm19.77,0h2.88l-6.45-7.92,6.42-6.57h-2.85l-7.62,7.71V-20.01h-2.25V0h2.25V-4.14l2.4-2.37Zm4.02-7.26c0,4.53,3.09,7.62,7.38,7.62A7.871,7.871,0,0,0,222-1.86l-1.08-1.47a6.334,6.334,0,0,1-4.47,1.83,5.106,5.106,0,0,1-5.22-5.01h11.73v-.57c0-4.35-2.58-7.77-6.96-7.77C211.86-14.85,208.86-11.46,208.86-7.26Zm7.11-5.73a4.7,4.7,0,0,1,4.77,4.83h-9.51A4.834,4.834,0,0,1,215.97-12.99ZM230.25.36a3.678,3.678,0,0,0,2.7-.93l-.66-1.68a2.171,2.171,0,0,1-1.53.6c-.99,0-1.47-.78-1.47-1.86v-9h2.94v-1.98h-2.94v-3.96h-2.25v3.96h-2.4v1.98h2.4v9.48C227.04-.87,228.12.36,230.25.36Zm6.27-17.28a1.536,1.536,0,0,0,1.53-1.53,1.511,1.511,0,0,0-1.53-1.5,1.5,1.5,0,0,0-1.5,1.5A1.531,1.531,0,0,0,236.52-16.92ZM235.41,0h2.25V-14.49h-2.25Zm16.53,0h2.25V-10.17c0-3.15-1.59-4.68-4.62-4.68a7.187,7.187,0,0,0-5.16,2.46v-2.1h-2.25V0h2.25V-10.59a5.594,5.594,0,0,1,4.29-2.25c1.95,0,3.24.81,3.24,3.36Zm6.72,3.72a7.4,7.4,0,0,0,5.85,2.16c3.54,0,6.9-1.5,6.9-6.3V-14.49h-2.25v2.19a6,6,0,0,0-4.86-2.55c-3.81,0-6.45,2.88-6.45,7.53,0,4.68,2.67,7.5,6.45,7.5a6.053,6.053,0,0,0,4.86-2.58V-.33c0,3.18-2.25,4.35-4.65,4.35a5.534,5.534,0,0,1-4.71-1.98Zm10.5-7.89a5.364,5.364,0,0,1-4.32,2.37c-2.91,0-4.65-2.34-4.65-5.52,0-3.21,1.74-5.52,4.65-5.52a5.338,5.338,0,0,1,4.32,2.34Z" transform="translate(848 552)" fill="#f9f9f9"/>
  </g>
</svg>
