<svg id="Layer_1" data-name="Layer 1" xmlns="http://www.w3.org/2000/svg" width="88.688" height="88.684" viewBox="0 0 88.688 88.684">
  <path id="Path_7" data-name="Path 7" d="M44.334,0a44.341,44.341,0,1,0,7.2,88.094V51.181h0a1.524,1.524,0,0,0-1.526-1.521H37a1.526,1.526,0,0,1-1.526-1.526V38.521A1.516,1.516,0,0,1,36.972,37c13.346-.119,16.184-7.89,16.779-10.945a1.513,1.513,0,0,1,1.51-1.207l11.883.045a1.524,1.524,0,0,1,1.521,1.524c0,7.938-.053,44.69-.053,55.031A44.341,44.341,0,0,0,44.334,0Z" transform="translate(0.006)" fill="#f9f9f9"/>
</svg>
