<svg xmlns="http://www.w3.org/2000/svg" width="34.916" height="24.447" viewBox="0 0 34.916 24.447">
  <g id="g5" transform="translate(0 0)" opacity="0.8">
    <path id="path7" d="M34.2,3.825A4.375,4.375,0,0,0,31.12.748C28.387,0,17.458,0,17.458,0S6.529,0,3.8.719A4.464,4.464,0,0,0,.719,3.825,46.1,46.1,0,0,0,0,12.224a45.924,45.924,0,0,0,.719,8.4A4.375,4.375,0,0,0,3.8,23.7c2.761.748,13.662.748,13.662.748s10.929,0,13.662-.719A4.375,4.375,0,0,0,34.2,20.651a46.1,46.1,0,0,0,.719-8.4s.029-5.695-.719-8.427Z" transform="translate(0 0)" fill="#4a4174"/>
    <path id="polygon9" d="M37.677,19.529l-9.089-5.235V24.763Z" transform="translate(-14.61 -7.305)" fill="#f9f9f9"/>
  </g>
</svg>
