<svg xmlns="http://www.w3.org/2000/svg" width="37.362" height="37.362" viewBox="0 0 37.362 37.362">
  <path id="instagram-logo-fill-svgrepo-com" d="M52.659,46.681A5.978,5.978,0,1,1,46.681,40.7,5.978,5.978,0,0,1,52.659,46.681Zm12.7-8.22V54.9A10.473,10.473,0,0,1,54.9,65.362H38.461A10.473,10.473,0,0,1,28,54.9V38.461A10.473,10.473,0,0,1,38.461,28H54.9A10.473,10.473,0,0,1,65.362,38.461Zm-9.714,8.22a8.967,8.967,0,1,0-8.967,8.967A8.967,8.967,0,0,0,55.648,46.681Zm2.989-9.714A2.242,2.242,0,1,0,56.4,39.209,2.242,2.242,0,0,0,58.637,36.967Z" transform="translate(-28 -28)" fill="#c3bbe9"/>
</svg>
