<svg xmlns="http://www.w3.org/2000/svg" width="30.206" height="30.207" viewBox="0 0 30.206 30.207">
  <path id="instagram-logo-fill-svgrepo-com" d="M47.936,43.1A4.833,4.833,0,1,1,43.1,38.27,4.833,4.833,0,0,1,47.936,43.1Zm10.27-6.645V49.749a8.467,8.467,0,0,1-8.458,8.458H36.458A8.467,8.467,0,0,1,28,49.749V36.458A8.467,8.467,0,0,1,36.458,28H49.749A8.467,8.467,0,0,1,58.206,36.458ZM50.353,43.1a7.25,7.25,0,1,0-7.25,7.25A7.25,7.25,0,0,0,50.353,43.1Zm2.417-7.854a1.812,1.812,0,1,0-1.812,1.812A1.812,1.812,0,0,0,52.769,35.25Z" transform="translate(-28 -28)" fill="#4a4174" opacity="0.8"/>
</svg>
